<?xml version="1.0" encoding="UTF-8" standalone="no"?>
<!-- Created with Inkscape (http://www.inkscape.org/) -->
<svg
   xmlns:svg="http://www.w3.org/2000/svg"
   xmlns="http://www.w3.org/2000/svg"
   version="1.0"
   width="219.68555"
   height="60.391285"
   id="svg2443"
   xml:space="preserve"><defs
     id="defs2446" /><g
     transform="matrix(1.25,0,0,-1.25,-10.628947,150.6681)"
     id="g2452"><path
       d="M 183.86448,86.84064 C 183.86448,86.84064 182.63712,85.96416 182.1384,86.0784 C 181.56552,86.20968 181.13904,86.74968 181.13904,87.51744 L 181.0848,89.54712 L 181.08,101.65872 C 181.08,103.9632 178.7184,105.5148 176.75808,106.51416 L 171.97776,102.55416 C 171.60384,104.34648 170.11032,105.54192 168.41808,106.40352 L 163.32192,102.22584 L 163.70904,101.78256 C 163.70904,101.78256 164.58936,102.44256 165.21744,102.3432 C 165.79416,102.25128 165.99744,102.00936 165.99744,101.2416 L 166.05192,99.21096 L 166.05192,82.92384 L 172.07448,82.92384 L 172.06872,101.0232 C 172.08192,101.25192 172.13064,101.51808 172.26288,101.7516 C 172.4868,102.15 172.94712,102.36648 173.57448,102.37872 C 174.26712,102.39096 175.00584,102.07032 175.00872,101.2416 L 175.0632,99.21096 L 175.06872,88.04904 L 175.06872,87.0984 C 175.06872,84.7968 176.76,83.35224 178.7184,82.35552 L 184.2516,86.39808 L 183.86448,86.84064"
       id="path2458"
       style="fill:#2e2e2f;fill-opacity:1;fill-rule:evenodd;stroke:none" /><path
       d="M 110.14968,101.65872 C 110.14968,103.9632 107.78616,105.5148 105.82872,106.51416 L 101.05512,102.5616 C 100.66968,104.34936 99.17904,105.54288 97.48968,106.40352 L 92.39352,102.22584 L 92.77968,101.78256 C 92.77968,101.78256 93.66,102.44256 94.28712,102.3432 C 94.8648,102.25128 95.06904,102.00936 95.06904,101.2416 L 95.13384,99.21096 L 95.12808,75.71904 C 95.12808,74.20512 94.39032,73.11192 93.33384,72.2232 C 93.33384,72.2232 96.61584,72.0552 99.45552,75.0132 C 99.45552,75.0132 101.03352,73.39872 103.38744,73.88448 C 103.38744,73.88448 101.38776,74.53776 101.15256,77.95872 L 101.15256,85.6548 L 105.82872,82.30128 C 107.78616,83.29872 110.14968,84.85128 110.14968,87.15288 L 110.14968,101.65872 z M 102.64584,85.8432 C 102.01584,85.85616 101.53512,86.09064 101.30256,86.48352 C 101.19936,86.65968 101.16552,86.9016 101.15256,87.0852 L 101.15256,99.27648 L 101.1552,99.27648 L 101.1552,100.8852 C 101.1552,100.88904 101.1552,100.89 101.1552,100.89288 C 101.1552,101.1468 101.17584,101.47128 101.33064,101.7516 C 101.55552,102.15 102.01584,102.36648 102.64584,102.37872 C 103.33584,102.39096 104.07744,102.07032 104.08032,101.2416 L 104.12616,99.21096 L 104.13384,99.21096 L 104.13384,88.26552 L 104.10552,87.1368 C 104.08032,86.1216 103.33584,85.83 102.64584,85.8432"
       id="path2460"
       style="fill:#2e2e2f;fill-opacity:1;fill-rule:evenodd;stroke:none" /><path
       d="M 94.2516,86.84064 C 94.2516,86.84064 93.02448,85.96416 92.52384,86.0784 C 91.95384,86.20968 91.52616,86.74968 91.52616,87.51744 L 91.47096,89.54712 L 91.46712,101.65872 C 91.46712,103.9632 89.10288,105.5148 87.1452,106.51416 L 82.36584,102.55416 C 81.99,104.34648 80.49744,105.54192 78.80616,106.40352 L 73.71,102.22584 L 74.09616,101.78256 C 74.09616,101.78256 74.97744,102.44256 75.60384,102.3432 C 76.18224,102.25128 76.38552,102.00936 76.38552,101.2416 L 76.44,99.21096 L 76.44,82.92384 L 82.45968,82.92384 L 82.4568,101.0232 C 82.46808,101.25192 82.51776,101.51808 82.64808,101.7516 C 82.8732,102.15 83.33256,102.36648 83.96256,102.37872 C 84.65352,102.39096 85.3932,102.07032 85.39584,101.2416 L 85.45128,99.21096 L 85.45584,88.04904 L 85.45584,87.0984 C 85.45584,84.7968 87.14712,83.35224 89.1048,82.35552 L 94.63872,86.39808 L 94.2516,86.84064"
       id="path2462"
       style="fill:#2e2e2f;fill-opacity:1;fill-rule:evenodd;stroke:none" /><path
       d="M 59.31,86.84064 C 59.31,86.84064 58.08288,85.96416 57.58224,86.0784 C 57.01224,86.20968 56.5848,86.74968 56.5848,87.51744 L 56.54256,89.31744 C 56.54256,89.31744 56.5368,96.90648 56.53872,102.16776 L 58.22448,102.16776 L 58.22448,104.10384 L 56.53872,104.10384 C 56.54064,105.81744 56.5416,106.99872 56.5452,107.08512 C 56.56512,107.58096 56.58552,108.79968 57,109.85352 C 57.62448,111.44808 59.2284,112.67256 59.2284,112.67256 L 58.63224,113.26968 C 57.66192,112.36128 53.0316,109.04808 51.68904,107.97288 C 50.7432,107.21712 50.55552,106.27776 50.52648,105.78648 L 50.52288,105.78648 L 50.52096,104.10384 L 48.92352,104.10384 L 48.92352,102.16776 L 50.52,102.16776 L 50.51352,87.0984 C 50.51352,84.7968 52.20552,83.35224 54.16416,82.35552 L 59.69712,86.39808 L 59.31,86.84064"
       id="path2464"
       style="fill:#2e2e2f;fill-opacity:1;fill-rule:evenodd;stroke:none" /><path
       d="M 57.43512,114.31224 L 55.99872,113.38224 C 54.94128,112.7052 53.93448,112.9416 52.88448,113.45712 C 51.84648,113.96448 51.0948,115.18416 51.0948,115.18416 C 51.0948,115.18416 41.97936,109.19712 41.5932,108.95352 C 41.19936,108.70416 40.86744,108.42096 40.57776,107.79192 L 40.57968,107.79288 C 40.30128,107.14872 40.23384,106.2684 40.21872,105.78648 L 40.21128,105.78648 L 40.21128,104.10384 L 38.7048,104.10384 L 38.7048,102.16776 L 40.21128,102.16776 L 40.21872,75.84288 L 41.4984,75.84288 L 41.4984,79.91448 C 41.5416,81.57552 42.21288,82.84416 43.94808,83.4816 L 45.23352,83.9448 C 45.88032,84.1848 46.23744,84.77352 46.23744,85.37064 C 46.23744,86.37744 46.23288,102.16776 46.23288,102.16776 L 47.67288,102.16776 L 47.67288,104.10384 L 46.23288,104.10384 L 46.24128,110.64744 L 46.2432,110.64936 C 46.2432,110.64936 47.04192,110.17584 48.49416,109.20744 C 49.94616,108.24 51.7332,109.38096 52.36512,109.76256 C 53.02416,110.16096 57.9132,113.84448 57.9132,113.84448 L 57.43512,114.31224"
       id="path2466"
       style="fill:#2e2e2f;fill-opacity:1;fill-rule:evenodd;stroke:none" /><path
       d="M 148.86936,86.84064 C 148.86936,86.84064 147.64224,85.96416 147.14448,86.0784 C 146.57352,86.20968 146.1468,86.74968 146.1468,87.51744 L 146.10288,89.31744 L 146.10288,102.16776 L 147.7848,102.16776 L 147.7848,104.10384 L 146.10288,104.10384 C 146.10288,104.10384 146.09256,106.74648 146.10552,107.08512 C 146.12616,107.58096 146.1468,108.79968 146.56032,109.85352 C 147.18552,111.44808 148.78968,112.67256 148.78968,112.67256 L 148.19352,113.26968 C 147.22128,112.36128 142.59192,109.04808 141.2484,107.97288 C 140.30616,107.21712 140.11512,106.27776 140.08872,105.78648 L 140.08416,105.78648 L 140.08416,104.10384 L 138.4848,104.10384 L 138.4848,102.16776 L 140.08416,102.16776 L 140.07384,87.0984 C 140.07384,84.7968 141.76512,83.35224 143.72352,82.35552 L 149.25744,86.39808 L 148.86936,86.84064"
       id="path2468"
       style="fill:#2e2e2f;fill-opacity:1;fill-rule:evenodd;stroke:none" /><path
       d="M 146.99448,114.31224 L 145.56096,113.38224 C 144.5016,112.7052 143.49648,112.9416 142.44192,113.45712 C 141.40872,113.96448 140.65512,115.18416 140.65512,115.18416 C 140.65512,115.18416 131.54064,109.19712 131.1552,108.95352 C 130.76064,108.70416 130.4268,108.42096 130.13712,107.79192 L 130.14,107.79288 C 129.86064,107.14872 129.79416,106.2684 129.78096,105.78648 L 129.77352,105.78648 L 129.78096,75.84288 L 131.05968,75.84288 L 131.05968,79.91448 C 131.10384,81.57552 131.7732,82.84416 133.50936,83.4816 L 134.79552,83.9448 C 135.4416,84.1848 135.79776,84.77352 135.79776,85.37064 C 135.79776,86.37744 135.80352,110.64744 135.80352,110.64744 L 135.80352,110.64936 C 135.80352,110.64936 136.60128,110.17584 138.0552,109.20744 C 139.50744,108.24 141.2952,109.38096 141.9252,109.76256 C 142.58448,110.16096 147.47448,113.84448 147.47448,113.84448 L 146.99448,114.31224"
       id="path2470"
       style="fill:#2e2e2f;fill-opacity:1;fill-rule:evenodd;stroke:none" /><path
       d="M 72.72552,87.79032 C 71.19096,86.79096 69.29448,86.32584 67.56744,87.05712 C 66.18552,87.63384 65.91,88.32384 65.91,89.8968 L 65.91,90.3948 L 65.90712,90.3948 L 65.90712,91.44648 C 65.93448,91.87512 66.58968,91.90128 66.84096,91.93968 C 68.39808,92.19 69.85032,92.9268 71.09904,94.2 C 72.37416,95.50224 74.14584,99.56616 72.22584,103.58448 C 71.78448,104.51064 70.20744,105.81648 69.18192,106.41288 C 69.18192,106.41288 61.20384,102.37776 61.0068,102.2532 C 60.6984,102.05808 60.4332,101.8368 60.22224,101.43648 C 59.95032,100.99968 59.88936,100.38 59.88936,100.0752 L 59.89512,100.07352 L 59.88744,90.6048 L 59.86872,90.6048 C 59.86872,90.2652 59.87448,89.94288 59.88744,89.6352 L 59.88744,89.34096 L 59.90352,89.34096 C 60.07584,86.52288 60.96,84.9852 63.99096,83.63904 L 66.37584,82.37352 L 73.09512,87.2868 L 72.72552,87.79032 z M 68.26776,97.55712 C 68.29512,96.0168 67.47192,94.23648 66.91416,93.59808 C 66.41256,93.0252 66.25776,92.9916 65.90712,92.89032 L 65.90712,100.3968 L 65.90448,100.3968 L 65.90448,103.01448 C 66.38352,102.92064 68.20584,101.17032 68.26776,97.55712"
       id="path2472"
       style="fill:#2e2e2f;fill-opacity:1;fill-rule:evenodd;stroke:none" /><path
       d="M 162.52032,87.79032 C 160.98552,86.79096 159.08712,86.32584 157.36128,87.05712 C 155.97936,87.63384 155.70552,88.32384 155.70552,89.8968 L 155.70552,90.3948 L 155.70288,90.3948 L 155.70288,91.44648 C 155.73192,91.87512 156.3852,91.90128 156.63552,91.93968 C 158.19096,92.19 159.64512,92.9268 160.89288,94.2 C 162.16968,95.50224 163.93872,99.56616 162.01968,103.58448 C 161.57712,104.51064 160.00128,105.81648 158.97648,106.41288 C 158.97648,106.41288 150.9984,102.37776 150.79968,102.2532 C 150.49224,102.05808 150.22584,101.8368 150.0168,101.43648 C 149.74584,100.99968 149.68416,100.38 149.68416,100.0752 L 149.6916,100.07352 L 149.68416,90.6048 L 149.66256,90.6048 C 149.66256,90.2652 149.67096,89.94288 149.68416,89.6352 L 149.68416,89.34096 L 149.69616,89.34096 C 149.86968,86.52288 150.75288,84.9852 153.78288,83.63904 L 156.17064,82.37352 L 162.8868,87.2868 L 162.52032,87.79032 z M 158.06448,97.55712 C 158.08968,96.0168 157.26552,94.23648 156.70776,93.59808 C 156.20616,93.0252 156.0516,92.9916 155.70288,92.89032 L 155.70288,100.3968 L 155.69808,100.3968 L 155.69808,103.01448 C 156.17808,102.92064 158.0016,101.17032 158.06448,97.55712"
       id="path2474"
       style="fill:#2e2e2f;fill-opacity:1;fill-rule:evenodd;stroke:none" /><path
       d="M 127.62384,88.77552 L 127.62384,100.30968 L 127.61904,100.30968 L 127.62096,100.53288 C 127.62096,102.0648 126.84096,102.8052 125.6532,103.44936 C 125.21808,103.68288 122.59128,105.50808 122.40288,106.43904 C 122.40288,106.43904 116.13552,104.08128 115.44096,103.78872 C 114.78192,103.51224 113.1648,102.8052 112.7568,101.93904 C 112.33776,101.05416 112.33032,100.59384 112.34352,100.2252 L 112.34352,89.1216 L 112.33776,88.20648 C 112.33776,86.67744 113.11584,85.93416 114.30648,85.29288 C 114.73776,85.05744 117.39096,83.16192 117.57936,82.23192 C 117.57936,82.23192 123.77448,84.6984 124.51584,84.9516 C 125.19288,85.18128 126.79224,85.93416 127.20288,86.80128 C 127.71936,87.90192 127.62384,88.34352 127.62384,88.77552 z M 118.36512,90.94512 L 118.36512,100.31448 L 118.36224,100.31448 L 118.36224,103.05384 C 119.20224,103.05384 121.57128,101.25552 121.60224,97.42584 L 121.60224,87.92064 L 121.6068,87.92256 L 121.6068,85.6884 C 120.88416,85.6884 118.54584,87.36744 118.36512,90.94512"
       id="path2476"
       style="fill:#2e2e2f;fill-opacity:1;fill-rule:evenodd;stroke:none" /><path
       d="M 23.786256,108.66648 C 23.786256,108.66648 23.849064,111.73872 23.84532,112.98288 C 23.83968,114.42192 25.16808,115.44384 26.74584,115.44384 C 28.00032,115.44384 29.43936,114.63096 29.5548,113.09904 C 29.63808,111.9852 29.62416,109.10712 29.62416,109.10712 L 29.62416,103.40256 L 23.772192,103.40256 L 23.772192,107.81712 L 23.786256,108.66648 z M 14.952192,91.01712 C 14.952192,91.83192 15.234384,92.26032 15.568128,92.47968 C 15.61968,92.5284 15.677808,92.56032 15.73968,92.57808 C 16.177512,92.77512 16.635,92.68872 16.635,92.68872 C 16.657512,92.39448 16.649064,91.71744 16.649064,91.71744 C 16.649064,90.23256 15.939384,89.90712 14.967192,89.9484 C 14.94,90.28128 14.952192,91.01712 14.952192,91.01712 z M 29.6316,95.54616 C 29.65224,94.27512 29.46288,92.37384 27.85128,90.55512 C 26.36904,88.87872 24.47904,88.27416 22.800936,87.7884 C 20.832192,87.22224 17.726256,87.33648 16.03032,88.47552 C 15.57,88.7832 15.290616,89.07744 15.129384,89.3616 C 15.66,89.1732 16.442808,89.1732 16.980936,89.1732 C 20.051256,89.1732 23.776872,90.2868 23.776872,93.97032 L 23.776872,99.96096 L 23.772192,99.95904 L 23.772192,100.6152 L 29.63712,100.6152 L 29.63712,95.51808 C 29.63352,95.53584 29.6316,95.54616 29.6316,95.54616 z M 29.65584,87.87384 C 29.65584,85.14552 31.6848,83.43744 34.00224,82.2552 L 40.96584,87.14256 C 40.96584,87.14256 40.22256,88.64064 40.22256,88.45224 C 40.22256,88.17288 40.20192,87.81384 40.02936,87.50904 C 39.78192,87.07032 39.1368,86.82936 38.44416,86.81904 C 37.6848,86.80416 36.87,87.15552 36.86904,88.07064 L 36.81552,90.30192 L 36.8148,90.30192 L 36.8148,103.6752 L 36.81648,103.6752 C 36.81648,103.6752 36.81648,108.33 36.81648,111.92904 C 36.81648,115.52808 38.6568,115.69032 38.6568,115.69032 L 38.6568,116.08584 C 34.57032,116.22096 33.9216,120.53448 33.9216,120.53448 L 33.55584,120.53448 C 32.47584,118.82808 29.37552,117.66552 26.29128,117.07032 C 20.813448,116.01384 16.608744,116.15616 16.608744,110.71872 L 16.608744,110.7084 L 16.595616,110.7084 L 16.595616,94.41192 L 16.602192,94.41192 C 16.605936,94.1484 16.608744,93.90648 16.611552,93.68064 C 16.260936,94.17936 15.217512,95.11776 12.451872,94.73712 C 9.69468,94.36032 8.919384,92.2884 8.722512,91.66584 C 8.36532,90.53448 8.296872,87.1632 9.677808,85.34448 C 10.914384,83.71416 13.028448,81.75552 17.868744,82.34256 C 22.71,82.92936 25.81584,85.80192 27.29352,87.3516 C 28.45872,88.57584 29.18352,89.4732 29.63712,90.11616 L 29.65584,87.87384"
       id="path2478"
       style="fill:#2e2e2f;fill-opacity:1;fill-rule:evenodd;stroke:none" /></g></svg>