<?xml version="1.0" encoding="UTF-8"?> <!-- Generator: Adobe Illustrator 22.1.0, SVG Export Plug-In . SVG Version: 6.00 Build 0) --> <svg xmlns="http://www.w3.org/2000/svg" xmlns:xlink="http://www.w3.org/1999/xlink" id="Layer_1" x="0px" y="0px" viewBox="0 0 32 32" style="enable-background:new 0 0 32 32;" xml:space="preserve"> <style type="text/css"> .st0{fill:url(#SVGID_1_);} .st1{fill:url(#SVGID_2_);} .st2{fill:url(#SVGID_3_);} .st3{fill:url(#SVGID_4_);} .st4{fill:url(#SVGID_5_);} </style> <radialGradient id="SVGID_1_" cx="20.2852" cy="9.8977" r="13.0057" gradientTransform="matrix(1 0 0 -1 -4.01 28.931)" gradientUnits="userSpaceOnUse"> <stop offset="0.45" style="stop-color:#FFFFFF"></stop> <stop offset="1" style="stop-color:#EBEBEB"></stop> </radialGradient> <path class="st0" d="M30.2,21.9c-0.1-0.2-0.2-0.3-0.4-0.5c-3.6-4.5-9-5.8-14.4-6.7c-2.4-0.4-4.9-0.8-7.1-1.9C5.1,11.2,3.9,9.5,3.4,7 C3.1,7.5,2.7,8.1,2.4,8.7c0.7,2.5,1.5,5.2,3.1,7.1c4.2,4.8,12.2,4.1,13.6,11.8c0.2,1.2,0.1,2.5-0.5,3.6 C23.8,30.2,28.2,26.7,30.2,21.9z"></path> <radialGradient id="SVGID_2_" cx="20.2852" cy="9.8977" r="13.0057" gradientTransform="matrix(1 0 0 -1 -4.01 28.931)" gradientUnits="userSpaceOnUse"> <stop offset="0.45" style="stop-color:#FFFFFF"></stop> <stop offset="1" style="stop-color:#EBEBEB"></stop> </radialGradient> <path class="st1" d="M30.2,21.9c-0.1-0.2-0.2-0.3-0.4-0.5c-3.6-4.5-9-5.8-14.4-6.7c-2.4-0.4-4.9-0.8-7.1-1.9C5.1,11.2,3.9,9.5,3.4,7 C3.1,7.5,2.7,8.1,2.4,8.7c0.7,2.5,1.5,5.2,3.1,7.1c4.2,4.8,12.2,4.1,13.6,11.8c0.2,1.2,0.1,2.5-0.5,3.6 C23.8,30.2,28.2,26.7,30.2,21.9z"></path> <linearGradient id="SVGID_3_" gradientUnits="userSpaceOnUse" x1="7.5059" y1="13.6037" x2="34.1758" y2="13.6037" gradientTransform="matrix(1 0 0 -1 -4.01 28.931)"> <stop offset="0.45" style="stop-color:#FFFFFF"></stop> <stop offset="1" style="stop-color:#EBEBEB"></stop> </linearGradient> <path class="st2" d="M7.9,13.2c2.2,1.2,4.7,1.8,7.1,2.3c5.5,1.2,10.8,2.8,14.2,7.6l0.2,0.3c0.3-0.5,0.5-1,0.7-1.5 c-0.1-0.2-0.2-0.3-0.4-0.5c-3.6-4.6-9-5.8-14.4-6.7c-2.4-0.4-4.9-0.8-7.1-1.9c-3-1.5-4.2-3.2-4.7-5.6C3.9,9.7,5,11.5,7.9,13.2z"></path> <radialGradient id="SVGID_4_" cx="13.9244" cy="8.9168" r="10.3799" gradientTransform="matrix(1 0 0 -1 -4.01 28.931)" gradientUnits="userSpaceOnUse"> <stop offset="0.28" style="stop-color:#FCEA3B"></stop> <stop offset="0.99" style="stop-color:#FDBB3B"></stop> </radialGradient> <path class="st3" d="M19.2,27.5c-1.5-7.6-9.4-7-13.6-11.8c-1.7-1.9-2.4-4.5-3.1-7.1c-4,7.5-1.2,16.8,6.3,20.8 c2.2,1.2,4.7,1.8,7.3,1.8c0.9,0,1.8-0.1,2.7-0.2C19.2,30,19.4,28.7,19.2,27.5z"></path> <radialGradient id="SVGID_5_" cx="21.4087" cy="17.7185" r="12.4101" gradientTransform="matrix(1 0 0 -1 -4.01 28.931)" gradientUnits="userSpaceOnUse"> <stop offset="0.28" style="stop-color:#FCEA3B"></stop> <stop offset="0.99" style="stop-color:#FDBB3B"></stop> </radialGradient> <path class="st4" d="M16,0.6C11,0.6,6.3,3,3.4,7c0.5,2.5,1.7,4.3,4.8,5.8c2.2,1.1,4.7,1.5,7.1,1.9c5.5,0.9,10.8,2.1,14.4,6.7 c0.1,0.2,0.2,0.3,0.4,0.5C33.4,14,29.7,5,21.9,1.7C20,1,18,0.6,16,0.6z"></path> </svg> 